<svg width="34" height="40" viewBox="0 0 34 40" fill="none" xmlns="http://www.w3.org/2000/svg">
<path d="M29.8334 38.9995H4.16669C2.50983 38.9995 1.10679 37.6381 1.42479 36.012C2.52666 30.3778 7.23273 28.8662 17 28.8662C26.7673 28.8662 31.4734 30.3778 32.5752 36.012C32.8932 37.6381 31.4902 38.9995 29.8334 38.9995Z" stroke="#FDFDFD" stroke-width="2" stroke-linejoin="round"/>
<path d="M25.0222 13.0635C25.0222 17.594 22.6972 22.5333 17 22.5333C11.3028 22.5333 8.97779 17.594 8.97779 13.0635M4.96667 12.2794C4.96667 12.2794 12.2359 12.2794 17 12.2794C21.7641 12.2794 29.0333 12.2794 29.0333 12.2794M26.025 12.2794C26.025 7.74888 23.0167 3.05079 17 3.05079M17 3.05079C10.9833 3.05079 7.97501 7.74888 7.97501 12.2794M17 3.05079V1M17 3.05079V5.10159" stroke="#FDFDFD" stroke-width="2" stroke-linecap="round"/>
<path d="M26.5 12.4004H8.13336L10.6667 6.06706L17 2.90039L24.6 6.70039L26.5 12.4004Z" fill="#FDFDFD"/>
</svg>
