<svg width="93" height="53" viewBox="0 0 93 53" fill="none" xmlns="http://www.w3.org/2000/svg">
<rect x="1.25" y="11.1748" width="56.5472" height="32.913" rx="3.5" stroke="#D5DAE3"/>
<rect x="43.835" y="19.6533" width="47.9151" height="32.3478" rx="0.5" fill="#313A4E" stroke="#D5DAE3"/>
<rect x="0.5" y="-0.5" width="27.7736" height="6.34783" rx="0.5" transform="matrix(1 0 0 -1 60.5991 19.2812)" stroke="#D5DAE3"/>
<rect x="0.5" y="-0.5" width="27.7736" height="6.34783" rx="0.5" transform="matrix(1 0 0 -1 60.5991 13.0664)" stroke="#D5DAE3"/>
<rect x="0.5" y="-0.5" width="27.7736" height="6.34783" rx="0.5" transform="matrix(1 0 0 -1 60.5991 6.84668)" stroke="#D5DAE3"/>
<rect width="2.87736" height="2.82609" rx="1.41304" transform="matrix(1 0 0 -1 83.6182 5.58691)" fill="#D5DAE3"/>
<rect width="2.87736" height="2.82609" rx="1.41304" transform="matrix(1 0 0 -1 83.6182 11.8027)" fill="#D5DAE3"/>
<rect width="2.87736" height="2.82609" rx="1.41304" transform="matrix(1 0 0 -1 83.6182 18.0215)" fill="#D5DAE3"/>
<path d="M72.1084 20.1533C72.1084 19.601 72.5561 19.1533 73.1084 19.1533H81.4669C82.0192 19.1533 82.4669 19.601 82.4669 20.1533V30.2726C82.4669 31.1679 81.3806 31.6121 80.7533 30.9732L78.0012 28.17C77.6093 27.7708 76.966 27.7708 76.5741 28.17L73.822 30.9732C73.1947 31.6121 72.1084 31.1679 72.1084 30.2726V20.1533Z" fill="#D5DAE3"/>
<rect x="27.5" y="44.499" width="4" height="6" stroke="#D5DAE3"/>
<rect x="19.665" y="50.7383" width="19.717" height="1.26087" rx="0.5" stroke="#D5DAE3"/>
<rect x="23.769" y="40.0635" width="11.5094" height="1.13043" rx="0.565217" fill="#D5DAE3"/>
</svg>
