<svg width="28" height="28" viewBox="0 0 28 28" fill="none" xmlns="http://www.w3.org/2000/svg">
<path d="M14.0013 0.666992C17.5375 0.666992 20.9289 2.07175 23.4294 4.57223C25.9299 7.07272 27.3346 10.4641 27.3346 14.0003C27.3346 17.5365 25.9299 20.9279 23.4294 23.4284C20.9289 25.9289 17.5375 27.3337 14.0013 27.3337C10.4651 27.3337 7.0737 25.9289 4.57321 23.4284C2.07273 20.9279 0.667969 17.5365 0.667969 14.0003C0.667969 10.4641 2.07273 7.07272 4.57321 4.57223C7.0737 2.07175 10.4651 0.666992 14.0013 0.666992ZM14.0013 3.33366C11.1723 3.33366 8.45922 4.45747 6.45883 6.45785C4.45844 8.45824 3.33464 11.1713 3.33464 14.0003C3.33464 16.8293 4.45844 19.5424 6.45883 21.5428C8.45922 23.5432 11.1723 24.667 14.0013 24.667C16.8303 24.667 19.5434 23.5432 21.5438 21.5428C23.5442 19.5424 24.668 16.8293 24.668 14.0003C24.668 11.1713 23.5442 8.45824 21.5438 6.45785C19.5434 4.45747 16.8303 3.33366 14.0013 3.33366ZM12.668 7.33366C12.98 7.33355 13.2823 7.44292 13.522 7.6427C13.7617 7.84248 13.9238 8.12002 13.98 8.42699L14.0013 8.66699V14.0003H18.0013C18.3345 13.9997 18.6558 14.1239 18.9021 14.3483C19.1483 14.5728 19.3015 14.8814 19.3316 15.2132C19.3617 15.545 19.2665 15.8761 19.0647 16.1412C18.8629 16.4063 18.5692 16.5863 18.2413 16.6457L18.0013 16.667H12.668C12.3559 16.6671 12.0537 16.5577 11.8139 16.358C11.5742 16.1582 11.4121 15.8806 11.356 15.5737L11.3346 15.3337V8.66699C11.3346 8.31337 11.4751 7.97423 11.7252 7.72418C11.9752 7.47413 12.3143 7.33366 12.668 7.33366Z" fill="#A5BEF7"/>
</svg>
