<svg width="195" height="53" viewBox="0 0 195 53" fill="none" xmlns="http://www.w3.org/2000/svg">
<path d="M60.4854 39.722C60.4854 38.1826 60.7767 36.6569 61.3734 35.145C61.9701 33.633 62.8443 32.2586 64.0099 31.0215C65.1755 29.7845 66.5908 28.7949 68.2559 28.0527C69.9211 27.3105 71.7943 26.9531 73.8757 26.9531C76.3873 26.9531 78.5797 27.4754 80.4252 28.5063C82.2707 29.5372 83.6583 30.8978 84.6019 32.5609L79.8147 35.7773C79.44 34.8564 78.9127 34.1416 78.2467 33.6193C77.5806 33.097 76.8452 32.7397 76.0543 32.5335C75.2633 32.3273 74.4863 32.2311 73.737 32.2311C72.5853 32.2311 71.5584 32.451 70.6842 32.9046C69.7962 33.3581 69.0746 33.9492 68.4918 34.6914C67.909 35.4337 67.4789 36.2721 67.1875 37.193C66.8961 38.1139 66.7573 39.021 66.7573 39.9007C66.7573 40.9316 66.9238 41.9211 67.2707 42.8695C67.6038 43.8042 68.0894 44.6426 68.7 45.3711C69.3105 46.0996 70.0598 46.6631 70.9201 47.0892C71.7943 47.5153 72.7656 47.7215 73.848 47.7215C74.5973 47.7215 75.3743 47.6115 76.1514 47.3779C76.9285 47.1442 77.65 46.7731 78.3161 46.237C78.9821 45.701 79.4955 45 79.8424 44.1341L84.9349 47.0342C84.3799 48.285 83.5057 49.3572 82.2985 50.2506C81.0913 51.144 79.7314 51.8312 78.2189 52.2985C76.7064 52.7658 75.1939 52.9995 73.6953 52.9995C71.7527 52.9995 69.9904 52.6146 68.3808 51.8587C66.7712 51.1027 65.3697 50.0856 64.1903 48.8211C63.0108 47.5565 62.095 46.1271 61.4567 44.5464C60.8045 42.9795 60.4854 41.3714 60.4854 39.722Z" fill="#FDFDFD"/>
<path d="M108.899 32.3411H100.753V52.8209H94.5648V32.3411H86.3779V27.1318H108.913V32.3411H108.899Z" fill="#FDFDFD"/>
<path d="M116.794 27.1318H123.441L132.724 52.8209H126.383L124.565 47.0618H115.712L113.88 52.8209H107.539L116.794 27.1318ZM123.288 43.0208L120.152 33.1108L117.003 43.0208H123.288Z" fill="#FDFDFD"/>
<path d="M145.171 52.8213V50.5396C143.589 50.4159 142.091 50.0861 140.675 49.5225C139.26 48.9727 138.011 48.203 136.915 47.1996C135.819 46.21 134.958 45.0417 134.334 43.6947C133.71 42.3478 133.39 40.8358 133.39 39.1727C133.39 37.4408 133.723 35.874 134.389 34.4995C135.056 33.125 135.944 31.9567 137.054 30.9946C138.164 30.0324 139.413 29.2764 140.814 28.7266C142.216 28.1769 143.659 27.8607 145.171 27.7645V25.7715H151.027V27.7645C152.539 27.8607 153.996 28.1906 155.384 28.7404C156.785 29.2902 158.034 30.0462 159.158 31.0083C160.282 31.9567 161.17 33.125 161.822 34.4995C162.475 35.874 162.808 37.4271 162.808 39.1727C162.808 40.8633 162.488 42.3753 161.85 43.7085C161.212 45.0417 160.338 46.2238 159.228 47.2134C158.117 48.2168 156.869 48.9865 155.453 49.5363C154.038 50.0723 152.567 50.4159 151.041 50.5259V52.8075H145.171V52.8213ZM145.324 45.8114V32.534C144.297 32.6577 143.339 32.9875 142.451 33.5098C141.577 34.0459 140.87 34.7744 140.356 35.7228C139.843 36.6574 139.579 37.8257 139.579 39.2002C139.579 40.2173 139.732 41.1245 140.051 41.9079C140.37 42.7051 140.786 43.3786 141.327 43.9146C141.869 44.4507 142.479 44.8905 143.173 45.2204C143.881 45.5365 144.588 45.7289 145.324 45.8114ZM150.874 45.8114C151.887 45.6602 152.817 45.3441 153.691 44.8356C154.565 44.327 155.259 43.5985 155.8 42.6501C156.341 41.7017 156.605 40.5472 156.605 39.2002C156.605 38.1831 156.452 37.2759 156.147 36.4925C155.842 35.6953 155.426 35.0218 154.898 34.472C154.371 33.9222 153.747 33.4823 153.053 33.1662C152.345 32.8501 151.623 32.644 150.86 32.5477V45.8114H150.874Z" fill="#FDFDFD"/>
<path d="M177.363 52.8213V50.5396C175.782 50.4159 174.283 50.0861 172.868 49.5225C171.452 48.9727 170.203 48.203 169.107 47.1996C168.011 46.21 167.151 45.0417 166.526 43.6947C165.902 42.3478 165.583 40.8358 165.583 39.1727C165.583 37.4408 165.916 35.874 166.582 34.4995C167.248 33.125 168.136 31.9567 169.246 30.9946C170.356 30.0324 171.605 29.2764 173.006 28.7266C174.408 28.1769 175.851 27.8607 177.363 27.7645V25.7715H183.219V27.7645C184.732 27.8607 186.189 28.1906 187.576 28.7404C188.978 29.2902 190.226 30.0462 191.35 31.0083C192.474 31.9567 193.362 33.125 194.015 34.4995C194.667 35.874 195 37.4271 195 39.1727C195 40.8633 194.681 42.3753 194.042 43.7085C193.404 45.0417 192.53 46.2238 191.42 47.2134C190.31 48.2168 189.061 48.9865 187.646 49.5363C186.23 50.0723 184.759 50.4159 183.233 50.5259V52.8075H177.363V52.8213ZM177.516 45.8114V32.534C176.489 32.6577 175.532 32.9875 174.644 33.5098C173.769 34.0459 173.062 34.7744 172.548 35.7228C172.035 36.6574 171.771 37.8257 171.771 39.2002C171.771 40.2173 171.924 41.1245 172.243 41.9079C172.562 42.7051 172.979 43.3786 173.52 43.9146C174.061 44.4507 174.671 44.8905 175.365 45.2204C176.073 45.5365 176.781 45.7289 177.516 45.8114ZM183.066 45.8114C184.079 45.6602 185.009 45.3441 185.883 44.8356C186.757 44.327 187.451 43.5985 187.992 42.6501C188.534 41.7017 188.797 40.5472 188.797 39.2002C188.797 38.1831 188.645 37.2759 188.339 36.4925C188.034 35.6953 187.618 35.0218 187.09 34.472C186.563 33.9222 185.939 33.4823 185.245 33.1662C184.537 32.8501 183.816 32.644 183.053 32.5477V45.8114H183.066Z" fill="#FDFDFD"/>
<path d="M60.236 8.35686C60.236 7.31225 60.4303 6.30894 60.8188 5.31931C61.2073 4.32969 61.7763 3.43626 62.5117 2.63906C63.261 1.84186 64.1629 1.19582 65.2314 0.714756C66.2998 0.233688 67.5071 0 68.853 0C70.4627 0 71.8503 0.34369 73.0297 1.01718C74.2092 1.69068 75.0695 2.57032 75.6245 3.65616L73.0436 5.37426C72.7522 4.742 72.3637 4.24716 71.8919 3.8898C71.4201 3.53243 70.9067 3.27127 70.3517 3.10634C69.7966 2.95514 69.2693 2.8727 68.7698 2.8727C67.9095 2.8727 67.174 3.03762 66.5357 3.36749C65.8974 3.69737 65.384 4.13722 64.9539 4.67326C64.5376 5.20931 64.2184 5.80033 64.0103 6.47383C63.8022 7.13358 63.6912 7.8071 63.6912 8.4806C63.6912 9.20907 63.816 9.91002 64.0658 10.5973C64.3156 11.2845 64.6625 11.8893 65.1065 12.4116C65.5644 12.9339 66.1056 13.3599 66.73 13.6623C67.3683 13.9647 68.0621 14.1297 68.8114 14.1297C69.3387 14.1297 69.8799 14.0472 70.4349 13.8685C70.9899 13.6898 71.5172 13.415 71.989 13.0439C72.4608 12.6728 72.8493 12.1642 73.1407 11.5594L75.9021 13.1126C75.5413 13.951 74.9724 14.652 74.1953 15.243C73.4183 15.8203 72.5441 16.2739 71.5866 16.5625C70.6292 16.8649 69.6717 17.0161 68.7143 17.0161C67.4654 17.0161 66.3276 16.7687 65.3008 16.2739C64.274 15.7791 63.3859 15.1193 62.6227 14.2946C61.8734 13.4699 61.2767 12.5353 60.8604 11.5045C60.4442 10.4461 60.236 9.40146 60.236 8.35686Z" fill="#FDFDFD"/>
<path d="M92.9697 16.879V5.86942L88.46 14.0613H86.559L82.0771 5.86942V16.879H78.6774V0.110352H82.3407L87.4887 9.63548L92.6922 0.110352H96.3416V16.879H92.9697Z" fill="#FDFDFD"/>
<path d="M105.223 0.110352H108.678L115.102 16.879H111.606L110.149 12.7006H103.724L102.267 16.879H98.7702L105.223 0.110352ZM109.358 10.4052L106.957 3.4916L104.543 10.4052H109.358Z" fill="#FDFDFD"/>
<path d="M117.516 16.879V0.110352H124.926C125.73 0.110352 126.48 0.261581 127.16 0.577711C127.84 0.893842 128.422 1.31992 128.922 1.85597C129.421 2.39201 129.796 2.98304 130.074 3.65653C130.351 4.31628 130.476 4.98975 130.476 5.69073C130.476 6.62538 130.254 7.51881 129.81 8.37098C129.366 9.22316 128.742 9.92417 127.923 10.4602C127.104 10.9963 126.161 11.2574 125.078 11.2574H120.915V16.879H117.516ZM120.915 8.3985H124.856C125.286 8.3985 125.661 8.28856 125.994 8.06864C126.327 7.84872 126.577 7.53258 126.771 7.10649C126.965 6.69414 127.049 6.21302 127.049 5.67697C127.049 5.09969 126.938 4.60496 126.716 4.20636C126.494 3.80776 126.202 3.49157 125.855 3.28539C125.508 3.07922 125.12 2.96929 124.704 2.96929H120.915V8.3985Z" fill="#FDFDFD"/>
<path d="M146.406 2.96929H140.842V16.879H137.47V2.96929H131.85V0.110352H146.406V2.96929Z" fill="#FDFDFD"/>
<path d="M45.1665 1.25121L23.8668 13.4291C23.5615 13.6078 23.1869 13.6078 22.8816 13.4291L1.58187 1.25121C0.929693 0.880097 0.111008 1.3474 0.111008 2.08962L0 39.5442C0 39.8878 0.180389 40.2176 0.485662 40.3826L21.5911 52.4506C22.2433 52.8217 23.062 52.3544 23.062 51.6121L23.0897 40.6163C23.0897 40.2727 22.9093 39.9427 22.6041 39.7778L12.1554 33.7989C11.8501 33.6202 11.6697 33.3041 11.6697 32.9604L11.6975 21.9646C11.6975 21.2224 12.5162 20.7551 13.1684 21.1262L22.8816 26.6516C23.1869 26.8302 23.5615 26.8302 23.8529 26.6516L33.5661 21.1262C34.2183 20.7551 35.037 21.2224 35.037 21.9646L35.1064 45.0834C35.1064 45.8256 35.925 46.2929 36.5772 45.9218L46.2488 40.3963C46.5541 40.2177 46.7345 39.9016 46.7345 39.5579L46.6235 2.10338C46.6373 1.34741 45.8187 0.880097 45.1665 1.25121Z" fill="#FDFDFD"/>
<path d="M22.6177 39.7915L12.1691 33.8125C11.8638 33.6339 11.6834 33.3177 11.6834 32.9741L11.7112 21.9783C11.7112 21.2361 12.5299 20.7687 13.182 21.1398L22.8953 26.6652C23.0479 26.7477 23.2144 26.789 23.3809 26.789V13.5665C23.2144 13.5665 23.0479 13.5252 22.8953 13.4427L1.59554 1.26488C0.943365 0.893769 0.12468 1.36107 0.12468 2.10329L0.0136719 39.5578C0.0136719 39.9015 0.194061 40.2313 0.499334 40.3963L21.6048 52.4642C22.257 52.8353 23.0756 52.368 23.0756 51.6258L23.1034 40.63C23.1173 40.2864 22.923 39.9564 22.6177 39.7915Z" fill="#FDFDFD"/>
</svg>
