<svg width="16" height="20" viewBox="0 0 16 20" fill="none" xmlns="http://www.w3.org/2000/svg">
<path d="M3.75 9.5C3.55109 9.5 3.36032 9.57902 3.21967 9.71967C3.07902 9.86032 3 10.0511 3 10.25C3 10.4489 3.07902 10.6397 3.21967 10.7803C3.36032 10.921 3.55109 11 3.75 11C3.94891 11 4.13968 10.921 4.28033 10.7803C4.42098 10.6397 4.5 10.4489 4.5 10.25C4.5 10.0511 4.42098 9.86032 4.28033 9.71967C4.13968 9.57902 3.94891 9.5 3.75 9.5ZM3 13.25C3 13.0511 3.07902 12.8603 3.21967 12.7197C3.36032 12.579 3.55109 12.5 3.75 12.5C3.94891 12.5 4.13968 12.579 4.28033 12.7197C4.42098 12.8603 4.5 13.0511 4.5 13.25C4.5 13.4489 4.42098 13.6397 4.28033 13.7803C4.13968 13.921 3.94891 14 3.75 14C3.55109 14 3.36032 13.921 3.21967 13.7803C3.07902 13.6397 3 13.4489 3 13.25ZM6 10.25C6 10.0511 6.07902 9.86032 6.21967 9.71967C6.36032 9.57902 6.55109 9.5 6.75 9.5H9.804C10.0029 9.5 10.1937 9.57902 10.3343 9.71967C10.475 9.86032 10.554 10.0511 10.554 10.25C10.554 10.4489 10.475 10.6397 10.3343 10.7803C10.1937 10.921 10.0029 11 9.804 11H6.75C6.55109 11 6.36032 10.921 6.21967 10.7803C6.07902 10.6397 6 10.4489 6 10.25ZM6.75 12.5C6.55109 12.5 6.36032 12.579 6.21967 12.7197C6.07902 12.8603 6 13.0511 6 13.25C6 13.4489 6.07902 13.6397 6.21967 13.7803C6.36032 13.921 6.55109 14 6.75 14H9.804C10.0029 14 10.1937 13.921 10.3343 13.7803C10.475 13.6397 10.554 13.4489 10.554 13.25C10.554 13.0511 10.475 12.8603 10.3343 12.7197C10.1937 12.579 10.0029 12.5 9.804 12.5H6.75ZM2.25 0C1.65326 0 1.08097 0.237053 0.65901 0.65901C0.237053 1.08097 0 1.65326 0 2.25V15.25C0 15.8467 0.237053 16.419 0.65901 16.841C1.08097 17.2629 1.65326 17.5 2.25 17.5H11.25C11.8467 17.5 12.419 17.2629 12.841 16.841C13.2629 16.419 13.5 15.8467 13.5 15.25V6.869C13.5 6.57353 13.4418 6.28094 13.3287 6.00796C13.2157 5.73497 13.0499 5.48693 12.841 5.278L8.222 0.659C7.80028 0.237289 7.22839 0.000259955 6.632 0H2.25ZM1.5 2.25C1.5 2.05109 1.57902 1.86032 1.71967 1.71967C1.86032 1.57902 2.05109 1.5 2.25 1.5H6.504V4.748C6.504 5.04347 6.5622 5.33606 6.67527 5.60904C6.78834 5.88202 6.95408 6.13006 7.16301 6.33899C7.58497 6.76095 8.15726 6.998 8.754 6.998H12V15.25C12 15.4489 11.921 15.6397 11.7803 15.7803C11.6397 15.921 11.4489 16 11.25 16H2.25C2.05109 16 1.86032 15.921 1.71967 15.7803C1.57902 15.6397 1.5 15.4489 1.5 15.25V2.25ZM8.004 4.748V2.562L10.939 5.498H8.754C8.55509 5.498 8.36432 5.41898 8.22367 5.27833C8.08302 5.13768 8.004 4.94691 8.004 4.748ZM4.75 20C4.2846 20.0001 3.8306 19.856 3.45056 19.5873C3.07052 19.3187 2.78313 18.9388 2.628 18.5H11.25C12.112 18.5 12.9386 18.1576 13.5481 17.5481C14.1576 16.9386 14.5 16.112 14.5 15.25V6.937L15.34 7.777C15.763 8.2 16 8.772 16 9.369V15.25C16 15.8738 15.8771 16.4915 15.6384 17.0677C15.3997 17.644 15.0498 18.1677 14.6088 18.6088C14.1677 19.0498 13.644 19.3997 13.0677 19.6384C12.4915 19.8771 11.8738 20 11.25 20H4.75Z" fill="#CED2DB"/>
</svg>
