<svg width="20" height="20" viewBox="0 0 20 20" fill="none" xmlns="http://www.w3.org/2000/svg">
<g clip-path="url(#clip0_2101_3407)">
<path d="M18.3333 5.50016C18.3289 8.90242 16.9754 12.1641 14.5696 14.5698C12.1638 16.9756 8.90219 18.3291 5.49993 18.3335C4.48327 18.3335 3.50825 17.9296 2.78936 17.2107C2.07047 16.4918 1.6666 15.5168 1.6666 14.5002C1.66496 14.2849 1.6845 14.07 1.72493 13.8585C1.75518 13.6541 1.80542 13.4531 1.87493 13.2585C1.92296 13.1216 2.00588 12.9997 2.11549 12.9047C2.22511 12.8097 2.35762 12.7449 2.49993 12.7168L7.49993 11.5752C7.63565 11.5444 7.77692 11.5481 7.91084 11.5859C8.04475 11.6238 8.16706 11.6946 8.2666 11.7918C8.38327 11.9002 8.3916 11.9085 8.92493 12.9335C10.7256 12.1127 12.1717 10.6725 12.9999 8.87516C11.9666 8.3335 11.9583 8.32516 11.8499 8.2085C11.7527 8.10896 11.6819 7.98665 11.644 7.85273C11.6062 7.71881 11.6025 7.57755 11.6333 7.44183L12.7749 2.44183C12.8069 2.30408 12.8734 2.17672 12.9681 2.07176C13.0629 1.96679 13.1828 1.88766 13.3166 1.84183C13.5144 1.77149 13.7179 1.71852 13.9249 1.6835C14.1344 1.64996 14.3462 1.63324 14.5583 1.63349C15.5706 1.64886 16.5357 2.06408 17.243 2.78852C17.9502 3.51295 18.3422 4.48777 18.3333 5.50016V5.50016ZM3.33327 14.5002C3.33546 15.0741 3.56444 15.6239 3.97029 16.0298C4.37615 16.4357 4.92597 16.6646 5.49993 16.6668C8.46084 16.6646 11.2998 15.4874 13.3935 13.3938C15.4872 11.3001 16.6644 8.46107 16.6666 5.50016C16.6644 4.9262 16.4354 4.37638 16.0296 3.97052C15.6237 3.56467 15.0739 3.33569 14.4999 3.3335C14.4083 3.3335 14.3166 3.3335 14.2249 3.3335L13.3333 7.20016L13.7916 7.44183C14.5166 7.81683 15.0416 8.09183 14.7583 8.79183C14.264 10.1728 13.4683 11.4262 12.429 12.4612C11.3897 13.4962 10.1329 14.2866 8.74993 14.7752C8.09993 15.0752 7.79993 14.5085 7.42493 13.7918L7.19993 13.3335L3.33327 14.2252L3.33327 14.5002Z" fill="#FDFDFD"/>
</g>
<defs>
<clipPath id="clip0_2101_3407">
<rect width="20" height="20" fill="white" transform="translate(0 20) rotate(-90)"/>
</clipPath>
</defs>
</svg>
