<svg width="48" height="40" viewBox="0 0 48 40" fill="none" xmlns="http://www.w3.org/2000/svg">
    <path d="M37.5714 23.25C38.1237 23.25 38.5744 23.7012 38.5482 24.2528C38.2164 31.2367 34.4224 32.6445 32.9061 32.9283C32.5291 32.9989 32.1796 33.2194 32.0127 33.5647L29.8369 38.0647C29.5158 38.7287 29.9995 39.5 30.7371 39.5H35.4286C42.3743 39.5 48 30.4325 48 23.25V1.5C48 0.947716 47.5523 0.5 47 0.5H27C26.4477 0.5 26 0.947716 26 1.5V22.25C26 22.8023 26.4477 23.25 27 23.25H37.5714Z" fill="#FFFFFF"/>
    <path d="M11.5714 23.25C12.1237 23.25 12.5744 23.7012 12.5482 24.2528C12.2164 31.2367 8.42236 32.6445 6.90615 32.9283C6.52914 32.9989 6.17964 33.2194 6.01268 33.5647L3.83685 38.0647C3.51577 38.7287 3.99954 39.5 4.73713 39.5H9.42857C16.3743 39.5 22 30.4325 22 23.25V1.5C22 0.947716 21.5523 0.5 21 0.5H1C0.447716 0.5 0 0.947716 0 1.5V22.25C0 22.8023 0.447716 23.25 1 23.25H11.5714Z" fill="#FFFFFF"/>
</svg>
