<svg width="18" height="18" viewBox="0 0 18 18" fill="none" xmlns="http://www.w3.org/2000/svg">
<path d="M12.9273 4.46335C13.523 4.97908 14.0113 5.6071 14.3642 6.31154C14.7172 7.01597 14.928 7.78304 14.9846 8.56894C15.0411 9.35484 14.9423 10.1442 14.6938 10.8919C14.4453 11.6396 14.0519 12.3311 13.5362 12.9268C13.0204 13.5224 12.3924 14.0107 11.688 14.3637C10.9836 14.7167 10.2165 14.9275 9.43058 14.984C8.64468 15.0406 7.85534 14.9418 7.10763 14.6933C6.35991 14.4447 5.66847 14.0514 5.07277 13.5357L9.00003 8.9995L12.9273 4.46335Z" fill="#4969B5"/>
<path d="M5.07278 13.5357C4.47708 13.0199 3.9888 12.3919 3.63581 11.6875C3.28283 10.983 3.07204 10.216 3.0155 9.43008C2.95896 8.64418 3.05777 7.85484 3.30628 7.10712C3.55479 6.35941 3.94815 5.66797 4.46388 5.07227C4.97962 4.47657 5.60763 3.98829 6.31207 3.6353C7.01651 3.28232 7.78358 3.07153 8.56948 3.01499C9.35538 2.95845 10.1447 3.05726 10.8924 3.30577C11.6401 3.55428 12.3316 3.94764 12.9273 4.46337L9.00003 8.99952L5.07278 13.5357Z" fill="#CC585F"/>
</svg>
