<svg id="geo" width="14" height="18" viewBox="0 0 14 18" fill="none" xmlns="http://www.w3.org/2000/svg">
		<path
			d="M7.00001 0.666504C5.24339 0.666416 3.55772 1.35964 2.30938 2.5955C1.06104 3.83136 0.35091 5.50997 0.333344 7.2665C0.333344 11.8332 6.20834 16.9165 6.45834 17.1332C6.60929 17.2623 6.80138 17.3332 7.00001 17.3332C7.19864 17.3332 7.39073 17.2623 7.54168 17.1332C7.83334 16.9165 13.6667 11.8332 13.6667 7.2665C13.6491 5.50997 12.939 3.83136 11.6906 2.5955C10.4423 1.35964 8.75663 0.666416 7.00001 0.666504ZM7.00001 9.83317C6.42315 9.83317 5.85924 9.66211 5.3796 9.34162C4.89995 9.02114 4.52612 8.56562 4.30536 8.03266C4.08461 7.49971 4.02685 6.91327 4.13939 6.34749C4.25193 5.78171 4.52971 5.26201 4.93762 4.85411C5.34552 4.44621 5.86522 4.16842 6.431 4.05588C6.99677 3.94334 7.58322 4.0011 8.11617 4.22186C8.64912 4.44261 9.10464 4.81645 9.42513 5.29609C9.74562 5.77573 9.91668 6.33964 9.91668 6.9165C9.91668 7.69005 9.60939 8.43192 9.0624 8.9789C8.51542 9.52588 7.77356 9.83317 7.00001 9.83317Z"
			fill="#ffffff" />
</svg>