<svg width="19" height="19" viewBox="0 0 19 19" fill="none" xmlns="http://www.w3.org/2000/svg">
<path d="M14.707 0.292786C14.5195 0.105315 14.2652 0 14 0C13.7348 0 13.4805 0.105315 13.293 0.292786L11 2.58579L9.707 1.29279C9.51947 1.10532 9.26516 1 9 1C8.73484 1 8.48053 1.10532 8.293 1.29279L2.293 7.29279C2.11084 7.48139 2.01005 7.73399 2.01233 7.99619C2.0146 8.25838 2.11977 8.5092 2.30518 8.6946C2.49059 8.88001 2.7414 8.98518 3.0036 8.98746C3.2658 8.98974 3.5184 8.88894 3.707 8.70679L9 3.41379L9.586 3.99979L7.293 6.29279L0.293 13.2928C0.105451 13.4803 5.66374e-05 13.7346 0 13.9998V17.9998C0 18.265 0.105357 18.5194 0.292893 18.7069C0.48043 18.8944 0.734784 18.9998 1 18.9998H5C5.26519 18.9997 5.51951 18.8943 5.707 18.7068L12.707 11.7068L18.707 5.70679C18.8945 5.51926 18.9998 5.26495 18.9998 4.99979C18.9998 4.73462 18.8945 4.48031 18.707 4.29279L14.707 0.292786ZM11.707 4.70679L14 2.41379L16.586 4.99979L12 9.58579L9.414 6.99979L11.707 4.70679ZM2 14.4138L8 8.41379L10.586 10.9998L4.586 16.9998H2V14.4138Z" fill="#CED2DB"/>
</svg>
