<svg width="27" height="27" viewBox="0 0 27 27" fill="none" xmlns="http://www.w3.org/2000/svg">
    <path d="M20.746 26.1503C20.5328 26.1512 20.3225 26.1009 20.1327 26.0037L13.3327 22.4437L6.53269 26.0037C6.31188 26.1198 6.06293 26.1716 5.81413 26.1533C5.56533 26.1349 5.32666 26.0472 5.12526 25.8999C4.92386 25.7527 4.76781 25.5519 4.67484 25.3204C4.58188 25.0889 4.55572 24.836 4.59936 24.5903L5.93269 17.0837L0.439358 11.7503C0.267968 11.5793 0.146387 11.3648 0.0876616 11.1299C0.0289365 10.895 0.0352846 10.6486 0.106025 10.417C0.183304 10.18 0.32546 9.96947 0.516358 9.80921C0.707257 9.64895 0.939255 9.54541 1.18602 9.51034L8.78603 8.40367L12.1327 1.56367C12.2419 1.33824 12.4123 1.14813 12.6246 1.0151C12.8368 0.882077 13.0822 0.811523 13.3327 0.811523C13.5832 0.811523 13.8286 0.882077 14.0408 1.0151C14.253 1.14813 14.4235 1.33824 14.5327 1.56367L17.9194 8.39034L25.5194 9.497C25.7661 9.53208 25.9981 9.63562 26.189 9.79588C26.3799 9.95614 26.5221 10.1667 26.5994 10.4037C26.6701 10.6352 26.6764 10.8817 26.6177 11.1166C26.559 11.3515 26.4374 11.566 26.266 11.737L20.7727 17.0703L22.106 24.577C22.1536 24.827 22.1287 25.0853 22.0342 25.3216C21.9397 25.5579 21.7796 25.7622 21.5727 25.9103C21.3313 26.0795 21.0405 26.1639 20.746 26.1503Z" fill="#FFD02C"/>
</svg>